<?xml version="1.0" encoding="utf-8"?>
<!-- Generator: Adobe Illustrator 24.1.0, SVG Export Plug-In . SVG Version: 6.00 Build 0)  -->
<svg version="1.1" xmlns="http://www.w3.org/2000/svg" xmlns:xlink="http://www.w3.org/1999/xlink" x="0px" y="0px"
	 viewBox="0 0 500 500" style="enable-background:new 0 0 500 500;" xml:space="preserve">
<style type="text/css">
	.st0{fill:#926D61;}
	.st1{stroke:#000000;stroke-width:3;stroke-linecap:round;stroke-linejoin:round;stroke-miterlimit:10;}
	.st2{fill:none;stroke:#000000;stroke-width:6;stroke-linecap:round;stroke-linejoin:round;stroke-miterlimit:10;}
	.st3{fill:#8D6E63;}
	.st4{fill:none;stroke:#000000;stroke-width:2;stroke-linecap:round;stroke-linejoin:round;stroke-miterlimit:10;}
	.st5{fill:none;stroke:#926D61;stroke-width:9;stroke-linecap:round;stroke-linejoin:round;stroke-miterlimit:10;}
	.st6{fill:none;stroke:#000000;stroke-width:9;stroke-linecap:round;stroke-linejoin:round;stroke-miterlimit:10;}
	.st7{fill:none;stroke:#000000;stroke-width:14;stroke-linecap:round;stroke-linejoin:round;stroke-miterlimit:10;}
</style>
<g id="Layer_1">
	<g>
		<path class="st0" d="M311.8,368.1c6.9-7.2,12.4-15.8,15.7-25.3c7.1-20.3,4.3-42.8-1.8-63.4c-2.4-8.1-5.4-16-9-23.6
			c7.1-4.2,12.9-10.4,16.1-18c21.1-49.1-50.6-73.9-68.1-36.1c-11.4-4.5-22.8-5.1-33.6-1.5c-21.1-24.2-73.6-21.4-66.5,32.2
			c1.5,11,8.6,20.7,18.2,26.3c-8.1,21.7-11.7,45.1-10.1,68.3c0.6,9.1,2.1,18.4,6.4,26.5c3.4,6.4,8.4,11.8,14,16.4
			c-2.5,4.3-4.7,8.8-6.6,13.4c-9.3,22.2-13.3,46.6-11.7,70.6c0.4,6.2,8.9-2,10.1,4.2c1.7,9.1,48.4-25.4,54-18
			c5.5,7.3,17.8,12.9,26,17c22.6,11.2,13.7,11.7,38,5c24.3-6.7,33.5-6.2,32.5-15.2c-1.7-14.2-6.4-28.3-11.2-41.9
			C320.7,394.9,317.1,380.9,311.8,368.1z"/>
		<path class="st1" d="M266.8,295c-0.4-1-1.7-1.2-2.8-1.1c-3.5,0.6-6.1,4.6-5.1,8.1c1,3.4,5.3,5.5,8.6,4.1c2.5-1.1,4.2-4,3.7-6.7
			s-3-5-5.8-5"/>
		<path class="st1" d="M235.3,296.2c-0.4-1-1.7-1.2-2.8-1.1c-3.5,0.6-6.1,4.6-5.1,8.1s5.3,5.5,8.6,4.1c2.5-1.1,4.2-4,3.7-6.7
			s-3-5-5.8-5"/>
		<path class="st2" d="M270,323.7c-2.9,1.7-6.2,2.6-9.5,2.7c-2,0.1-4.1-0.2-5.9-1c-1.8-0.9-3.3-2.4-3.9-4.4
			c-0.4,3.3-3.2,6.1-6.4,7.2c-3.2,1.1-6.7,0.8-10-0.1c-1.3-0.4-2.8-1-3.1-2.4"/>
		<path d="M230.6,397.1c-1.3,0.9-2.8,1.4-4.1,2.3c1.6,0.2,3.2,1.1,4.3,2.4c0.5,0.6,1,1.4,1,2.2c0.1,1.4-0.8,2.8-2.1,3.6
			s-2.7,1.1-4.1,1.3c1.1,1.2,3.1,1.1,4.1,2.3c0.9,1,0.7,2.7-0.1,3.7c-0.8,1.1-2.1,1.7-3.4,2c-6.3,1.6-13.3-2.7-15.4-8.8
			c-0.6-1.6-0.8-3.4-0.5-5.1c1.1-4.8,7.4-10.9,12-12.7C226.3,388.8,236.8,392.6,230.6,397.1z"/>
		<path d="M278.8,394c-3-2.2-6.4-3.7-9.9-4.4c-1.6-0.3-3.3-0.5-4.6,0.5c-1.6,1.2-1.7,3.7-0.6,5.4c1.1,1.7,3,2.6,4.9,3.2
			c-1.4-0.4-2.8-0.8-4.3-0.6c-1.4,0.2-2.9,1.1-3.2,2.5c-0.3,1.4,0.6,2.9,1.8,3.7c1.2,0.8,2.8,0.9,4.2,1c-2.3,0.1-4.7,0.4-6.2,2.1
			c-1.8,2.1-1.1,5.7,1.1,7.5c2.2,1.8,5.3,2.1,8.1,1.4c4.8-1.2,8.8-5.3,10-10.1c0.7-2.9,0.4-5.9,0.2-8.9
			C280.1,396.3,279.6,394.7,278.8,394z"/>
	</g>
	<g>
		<path class="st3" d="M390.8,174.7c-2.5-2.2-5.5-4.2-8.9-4.1c-3.4,0.1-6.3,2.2-8.8,4.5c-4.3,4-8,8.8-9.4,14.5s0.2,12.3,4.9,15.8
			c4.3,3.2,10.3,3.2,15.5,2c5.9-1.5,19-6.6,19.8-13.9C404.8,187,395.1,178.3,390.8,174.7z"/>
		<path d="M392.6,192.5c1.7,2.1,3.7,4.1,6.3,5c2.6,0.9,6,0.5,8.3-1.8c1.5-1.5,2.3-3.5,2.5-5.4c0.2-1.9,0-3.8-0.4-5.6
			c-0.3-1.4-0.7-2.8-1.2-4.2c-0.8-1.9-1.9-3.6-3.1-5.3c-2-2.7-4.3-5.1-6.9-7.2c-2.2-1.7-4.7-3.3-7.6-3.5c-2.9-0.2-6.4,1.3-8,4.2
			c-1.7,3.2-0.6,6.7,0.7,9.6C385.5,183.5,389.2,188.4,392.6,192.5z"/>
		<path d="M408.6,172.3c0.5-0.5,1-1.1,0.8-1.7c0-0.1-0.1-0.2-0.2-0.3s-0.2,0-0.3,0c-2.9,0.6-5.3,2.5-7.4,4.5c-0.3,0.3-0.6,0.6-0.7,1
			c-0.3,1.9,2.8,0,3.3-0.3C405.8,174.7,407.3,173.6,408.6,172.3z"/>
		<path d="M379.6,188.2c0.5,0.7,0.1,1.7-0.5,2.3c-0.4,0.4-1,0.6-1.5,0.5c-0.7-0.1-1.2-0.9-1.2-1.7c0-0.8,0.6-1.6,1.4-1.8
			c0.8-0.2,1.7,0.3,1.9,1"/>
		<path d="M383.7,193.5c0.5,0.7,0.1,1.7-0.5,2.3c-0.4,0.4-1,0.6-1.5,0.5c-0.7-0.1-1.2-0.9-1.2-1.7c0-0.8,0.6-1.6,1.4-1.8
			c0.8-0.2,1.7,0.3,1.9,1"/>
		<path class="st4" d="M378.1,197.4c-0.9,0.2-1.7-0.4-1.9-1.3c-0.2-0.9,0.2-1.8,0.8-2.6c-0.6,0.8-1.8,0.9-2.4,0.3
			c-0.6-0.6-0.6-1.8,0.1-2.5"/>
	</g>
	<g>
		<path class="st3" d="M99.9,189.9c-1.9,2.7-3.6,5.9-3.2,9.3c0.4,3.3,2.9,6.1,5.4,8.3c4.4,3.9,9.6,7.1,15.4,7.8
			c5.8,0.7,12.3-1.5,15.3-6.5c2.8-4.6,2.2-10.6,0.4-15.7c-2.1-5.8-8.5-18.3-15.9-18.3C110.7,174.6,103.1,185.3,99.9,189.9z"/>
		<path d="M117.5,186.2c1.9-1.9,3.7-4.1,4.3-6.8c0.6-2.7-0.2-6-2.6-8.1c-1.6-1.3-3.7-1.9-5.7-1.9c-2,0-3.8,0.4-5.6,1
			c-1.4,0.4-2.8,1-4,1.6c-1.8,1-3.4,2.3-4.9,3.6c-2.5,2.3-4.6,4.8-6.4,7.6c-1.5,2.3-2.8,5-2.7,7.9c0.1,2.9,2,6.3,5,7.5
			c3.3,1.4,6.8-0.1,9.5-1.7C109.2,194.3,113.7,190.1,117.5,186.2z"/>
		<path d="M95.7,172.4c-0.5-0.4-1.2-0.9-1.8-0.7c-0.1,0-0.2,0.1-0.3,0.2c0,0.1,0,0.2,0,0.3c0.8,2.8,3.1,5,5.3,6.9
			c0.3,0.3,0.7,0.6,1.1,0.6c1.9,0.1-0.3-2.8-0.6-3.3C98.4,175,97.1,173.6,95.7,172.4z"/>
		<path d="M114.5,199.6c0.6-0.6,1.7-0.3,2.3,0.3c0.4,0.4,0.7,0.9,0.7,1.4c0,0.7-0.8,1.3-1.5,1.4c-0.8,0.1-1.7-0.4-1.9-1.2
			c-0.3-0.8,0.1-1.7,0.8-2"/>
		<path d="M119.4,195c0.6-0.6,1.7-0.3,2.3,0.3c0.4,0.4,0.7,0.9,0.7,1.4c0,0.7-0.8,1.3-1.5,1.4c-0.8,0.1-1.7-0.4-1.9-1.2
			c-0.3-0.8,0.1-1.7,0.8-2"/>
		<path class="st4" d="M123.9,200.2c0.3,0.8-0.3,1.7-1.1,2c-0.8,0.2-1.8,0-2.7-0.5c0.8,0.5,1.1,1.7,0.6,2.4
			c-0.5,0.7-1.7,0.7-2.5,0.2"/>
	</g>
	<g>
		<path class="st5" d="M308.3,112.3c-2.6,7-5.8,14-6,21.5c-0.1,3.5,1.1,6.2,4.4,7.4c1.8,0.6,4.8,0.8,6.4-0.1
			c3.9-2.4,5.6-5.9,7.1-10.2c1.4-4.1,2.9-8.3,4.3-12.4"/>
		<g>
			<path class="st5" d="M264.8,101.5c0,1.1-0.3,2.4-0.2,3.6c0.1,2.8,0.2,5.6,1.1,8.3c0.9,2.6,2.7,5.1,5.3,6.2
				c3.6,1.5,7.9-0.2,10.6-3c2.7-2.8,4.1-6.6,5.5-10.3"/>
			<path class="st5" d="M272.4,124.5c-0.5,3.9-0.9,7.7-1.4,11.6"/>
		</g>
		<path class="st5" d="M335.5,153.2c2.5-6.9,8.7-14,13.4-19.6c0.9-1,1.9-1.8,4-1.4c1.8,0.3,2.5,0.8,3,2.5c0.5,2,0.3,4.1-0.1,6.1
			c-1,5.5-4.5,12.9-7.1,17.8c4.1-4.7,9.8-11.4,14.6-15.4c1.2-1,3.8-1.3,5.3-0.9c2.2,0.6,2.7,3.7,2.2,6.8c-0.9,5.9-3.7,10-6.8,15.1
			c-0.2,0.4-1.3,2.6-1.6,3"/>
		<path class="st5" d="M168.5,139.1c4.4,6.1,8.3,12.7,14.4,17c2.9,2,5.8,2.5,8.6,0.5c1.5-1.1,3.4-3.5,3.5-5.4
			c0.2-4.5-1.8-7.9-4.5-11.6c-2.6-3.5-5.2-7-7.8-10.6"/>
		<g>
			<path class="st5" d="M134.5,160.8c0.8,0.7,1.6,1.8,2.6,2.6c2.2,1.8,4.4,3.5,6.9,4.6s5.6,1.4,8.1,0.1c3.5-1.7,5.1-6.1,4.7-10
				s-2.2-7.5-4.1-10.9"/>
			<path class="st5" d="M155.1,168.9c2.6,2.9,5.2,5.8,7.8,8.7"/>
		</g>
		<path class="st5" d="M213.5,144.5c-3.8-6.3-5.4-15.6-6.8-22.8c-0.3-1.3-0.2-2.6,1.4-4c1.3-1.2,2.2-1.4,3.8-0.7
			c1.9,0.8,3.3,2.3,4.6,3.9c3.6,4.2,7.2,11.6,9.3,16.7c-1-6.1-2.7-14.8-2.7-21.1c0-1.5,1.4-3.8,2.7-4.7c1.8-1.3,4.5,0.3,6.7,2.6
			c4,4.5,5.4,9.2,7.5,14.8c0.2,0.4,1.2,2.7,1.3,3.1"/>
	</g>
	<g>
		<path class="st6" d="M302.8,110.6c-2.6,7-5.8,14-6,21.5c-0.1,3.5,1.1,6.2,4.4,7.4c1.8,0.6,4.8,0.8,6.4-0.1
			c3.9-2.4,5.6-5.9,7.1-10.2c1.4-4.1,2.9-8.3,4.3-12.4"/>
		<g>
			<path class="st6" d="M259.3,99.8c0,1.1-0.3,2.4-0.2,3.6c0.1,2.8,0.2,5.6,1.1,8.3s2.7,5.1,5.3,6.2c3.6,1.5,7.9-0.2,10.6-3
				c2.7-2.8,4.1-6.6,5.5-10.3"/>
			<path class="st6" d="M266.9,122.8c-0.5,3.9-0.9,7.7-1.4,11.6"/>
		</g>
		<path class="st6" d="M330,151.5c2.5-6.9,8.7-14,13.4-19.6c0.9-1,1.9-1.8,4-1.4c1.8,0.3,2.5,0.8,3,2.5c0.5,2,0.3,4.1-0.1,6.1
			c-1,5.5-4.5,12.9-7.1,17.8c4.1-4.7,9.8-11.4,14.6-15.4c1.2-1,3.8-1.3,5.3-0.9c2.2,0.6,2.7,3.7,2.2,6.8c-0.9,5.9-3.7,10-6.8,15.1
			c-0.2,0.4-1.3,2.6-1.6,3"/>
		<path class="st6" d="M163,137.4c4.4,6.1,8.3,12.7,14.4,17c2.9,2,5.8,2.5,8.6,0.5c1.5-1.1,3.4-3.5,3.5-5.4
			c0.2-4.5-1.8-7.9-4.5-11.6c-2.6-3.5-5.2-7-7.8-10.6"/>
		<g>
			<path class="st6" d="M128.9,159.1c0.8,0.7,1.6,1.8,2.6,2.6c2.2,1.8,4.4,3.5,6.9,4.6c2.6,1.1,5.6,1.4,8.1,0.1
				c3.5-1.7,5.1-6.1,4.7-10c-0.4-3.9-2.2-7.5-4.1-10.9"/>
			<path class="st6" d="M149.6,167.2c2.6,2.9,5.2,5.8,7.8,8.7"/>
		</g>
		<path class="st6" d="M207.9,142.7c-3.8-6.3-5.4-15.6-6.8-22.8c-0.3-1.3-0.2-2.6,1.4-4c1.3-1.2,2.2-1.4,3.8-0.7
			c1.9,0.8,3.3,2.3,4.6,3.9c3.6,4.2,7.2,11.6,9.3,16.7c-1-6.1-2.7-14.8-2.7-21.1c0-1.5,1.4-3.8,2.7-4.7c1.8-1.3,4.5,0.3,6.7,2.6
			c4,4.5,5.4,9.2,7.5,14.8c0.2,0.4,1.2,2.7,1.3,3.1"/>
	</g>
</g>
<g id="Layer_2">
	<path class="st7" d="M470,225.5c0-33.3-23.8-61-55.3-67.2c-0.9,2.4-2.5-0.5,0,0c2.7-7.4,4.3-15.4,4.3-23.8
		c0-37.8-30.7-68.5-68.5-68.5c-13.3,0-25.7,3.8-36.3,10.4c0.4,1-0.9,0.6,0,0C304.2,51,279.5,33,250.5,33
		c-28.4,0-52.8,17.3-63.2,41.9c1.2,0.7-0.6,1.4,0,0c0,0,0,0,0,0c-10-5.7-21.5-8.9-33.8-8.9C115.7,66,85,96.7,85,134.5
		c0,6.4,0.9,12.7,2.5,18.6c0.2,0.9,0.6,1.6,1,2.2c1.9-0.2,0.9,1.4,0,0c-0.3,0-0.7,0-1,0.1C53,158.9,26,188,26,223.5
		c0,25.2,13.7,47.3,34,59.2c0.6,0.3,1.2,0.7,1.8,1c0.2-0.7,0.2,0.3,0,0C55,294.3,51,306.9,51,320.5c0,37.7,30.4,68.3,68.1,68.5
		c0-0.8,0.9,0,0.4,0c-0.1,0-0.3,0-0.4,0c1.3,36.7,31.4,66,68.4,66c19.5,0,37.1-8.2,49.6-21.3c-0.4-0.6,0.5-0.5,0,0
		c12.5,17.1,32.6,28.3,55.4,28.3c0.8,0,1.6,0,2.3,0c15.4-0.5,29.4-6.1,40.6-15.1c14.6-11.8,24.3-29.5,25.4-49.4c-0.8-0.2,0-0.8,0,0
		c5.9,1.7,12.2,2.6,18.6,2.6c37.8,0,68.5-30.7,68.5-68.5c0-17-6.2-32.5-16.4-44.5c-0.1,0-0.1,0.1-0.2,0.1c-0.4-0.1,0.6-1.1,0-0.3
		c0,0.1,0.1,0.1,0.2,0.2C454.3,275.9,470,252.5,470,225.5z"/>
</g>
</svg>
