<?xml version="1.0" encoding="UTF-8"?>
<svg xmlns="http://www.w3.org/2000/svg" xmlns:xlink="http://www.w3.org/1999/xlink" width="28pt" height="28pt" viewBox="0 0 28 28" version="1.1">
<g id="surface1">
<path style=" stroke:none;fill-rule:nonzero;fill:rgb(0%,0%,0%);fill-opacity:1;" d="M 4.375 3.5 C 2.933594 3.5 1.75 4.683594 1.75 6.125 L 1.75 20.125 C 1.75 21.566406 2.933594 22.75 4.375 22.75 L 7 22.75 L 7 27.007812 L 13.390625 22.75 L 21.875 22.75 C 23.316406 22.75 24.5 21.566406 24.5 20.125 L 24.5 6.125 C 24.5 4.683594 23.316406 3.5 21.875 3.5 Z M 4.375 5.25 L 21.875 5.25 C 22.367188 5.25 22.75 5.632812 22.75 6.125 L 22.75 20.125 C 22.75 20.617188 22.367188 21 21.875 21 L 12.859375 21 L 8.75 23.742188 L 8.75 21 L 4.375 21 C 3.882812 21 3.5 20.617188 3.5 20.125 L 3.5 6.125 C 3.5 5.632812 3.882812 5.25 4.375 5.25 Z M 7 12.25 L 7 14 L 8.75 14 L 8.75 12.25 Z M 12.25 12.25 L 12.25 14 L 14 14 L 14 12.25 Z M 17.5 12.25 L 17.5 14 L 19.25 14 L 19.25 12.25 Z M 17.5 12.25 "/>
</g>
</svg>
