<?xml version="1.0" encoding="UTF-8"?>
<svg xmlns="http://www.w3.org/2000/svg" xmlns:xlink="http://www.w3.org/1999/xlink" viewBox="0 0 100 100" width="100px" height="100px">
<g id="surface39638195">
<path style=" stroke:none;fill-rule:nonzero;fill:rgb(0%,0%,0%);fill-opacity:1;" d="M 50 4 C 24.632812 4 4 24.632812 4 50 C 4 75.367188 24.632812 96 50 96 C 75.367188 96 96 75.367188 96 50 C 96 24.632812 75.367188 4 50 4 Z M 65.414062 51.414062 L 45.414062 71.414062 C 45.023438 71.804688 44.515625 72 44 72 C 43.484375 72 42.976562 71.804688 42.585938 71.414062 C 41.804688 70.632812 41.804688 69.367188 42.585938 68.585938 L 61.171875 50 L 42.585938 31.414062 C 41.804688 30.632812 41.804688 29.367188 42.585938 28.585938 C 43.367188 27.804688 44.632812 27.804688 45.414062 28.585938 L 65.414062 48.585938 C 66.195312 49.367188 66.195312 50.632812 65.414062 51.414062 Z M 65.414062 51.414062 "/>
</g>
</svg>
