<?xml version="1.0" encoding="UTF-8"?>
<svg xmlns="http://www.w3.org/2000/svg" xmlns:xlink="http://www.w3.org/1999/xlink" viewBox="0 0 100 100" width="100px" height="100px">
<g id="surface25068329">
<path style=" stroke:none;fill-rule:nonzero;fill:rgb(0%,0%,0%);fill-opacity:1;" d="M 48 0 L 48 8.046875 C 26.417969 9.0625 9.066406 26.417969 8.050781 48 L 0 48 L 0 52 L 8.050781 52 C 9.066406 73.582031 26.417969 90.9375 48 91.953125 L 48 100 L 52 100 L 52 91.949219 C 73.582031 90.933594 90.933594 73.582031 91.949219 52 L 100 52 L 100 48 L 91.949219 48 C 90.933594 26.417969 73.582031 9.066406 52 8.050781 L 52 0 Z M 48 12.097656 L 48 20 L 52 20 L 52 12.101562 C 71.40625 13.109375 86.890625 28.59375 87.898438 48 L 80 48 L 80 52 L 87.898438 52 C 86.890625 71.40625 71.40625 86.890625 52 87.898438 L 52 80 L 48 80 L 48 87.902344 C 28.597656 86.890625 13.109375 71.40625 12.101562 52 L 20 52 L 20 48 L 12.101562 48 C 13.109375 28.59375 28.597656 13.109375 48 12.097656 Z M 50 36 C 42.292969 36 36 42.292969 36 50 C 36 57.707031 42.292969 64 50 64 C 57.707031 64 64 57.707031 64 50 C 64 42.292969 57.707031 36 50 36 Z M 50 40 C 55.546875 40 60 44.453125 60 50 C 60 55.546875 55.546875 60 50 60 C 44.453125 60 40 55.546875 40 50 C 40 44.453125 44.453125 40 50 40 Z M 50 40 "/>
</g>
</svg>
