<?xml version="1.0" encoding="UTF-8"?>
<svg xmlns="http://www.w3.org/2000/svg" xmlns:xlink="http://www.w3.org/1999/xlink" viewBox="0 0 160 160" width="160px" height="160px">
<g id="surface13614536">
<path style=" stroke:none;fill-rule:nonzero;fill:rgb(100%,100%,100%);fill-opacity:1;" d="M 80 155 C 38.644531 155 5 121.355469 5 80 C 5 38.644531 38.644531 5 80 5 C 121.355469 5 155 38.644531 155 80 C 155 121.355469 121.355469 155 80 155 Z M 80 155 "/>
<path style=" stroke:none;fill-rule:nonzero;fill:rgb(20%,20%,20%);fill-opacity:1;" d="M 80 6 C 120.804688 6 154 39.195312 154 80 C 154 120.804688 120.804688 154 80 154 C 39.195312 154 6 120.804688 6 80 C 6 39.195312 39.195312 6 80 6 M 80 4 C 38.027344 4 4 38.027344 4 80 C 4 121.972656 38.027344 156 80 156 C 121.972656 156 156 121.972656 156 80 C 156 38.027344 121.972656 4 80 4 Z M 80 4 "/>
<path style=" stroke:none;fill-rule:nonzero;fill:rgb(20%,20%,20%);fill-opacity:1;" d="M 95.71875 95 L 64.28125 95 C 62.445312 95.4375 29 103.769531 29 126.464844 L 29 134.972656 C 42.382812 147.394531 60.300781 155 80 155 C 99.699219 155 117.617188 147.394531 131 134.972656 L 131 126.464844 C 131 103.78125 97.550781 95.4375 95.71875 95 Z M 95.71875 95 "/>
<path style=" stroke:none;fill-rule:nonzero;fill:rgb(20%,20%,20%);fill-opacity:1;" d="M 80 156 C 60.773438 156 42.417969 148.792969 28.320312 135.703125 L 28 135.40625 L 28 126.460938 C 28 102.902344 62.574219 94.378906 64.046875 94.027344 L 64.28125 94 L 95.953125 94.027344 C 97.425781 94.378906 132 102.90625 132 126.460938 L 132 135.40625 L 131.679688 135.703125 C 117.582031 148.792969 99.226562 156 80 156 Z M 30 134.535156 C 43.6875 147.089844 61.425781 154 80 154 C 98.574219 154 116.3125 147.089844 130 134.535156 L 130 126.464844 C 130 104.878906 98.128906 96.621094 95.601562 96 L 64.398438 96 C 61.871094 96.621094 30 104.875 30 126.460938 Z M 30 134.535156 "/>
<path style=" stroke:none;fill-rule:nonzero;fill:rgb(20%,20%,20%);fill-opacity:1;" d="M 80 81 C 65.113281 81 53 68.886719 53 54 C 53 39.113281 65.113281 27 80 27 C 94.886719 27 107 39.113281 107 54 C 107 68.886719 94.886719 81 80 81 Z M 80 81 "/>
<path style=" stroke:none;fill-rule:nonzero;fill:rgb(20%,20%,20%);fill-opacity:1;" d="M 80 82 C 64.558594 82 52 69.441406 52 54 C 52 38.558594 64.558594 26 80 26 C 95.441406 26 108 38.558594 108 54 C 108 69.441406 95.441406 82 80 82 Z M 80 28 C 65.664062 28 54 39.664062 54 54 C 54 68.335938 65.664062 80 80 80 C 94.335938 80 106 68.335938 106 54 C 106 39.664062 94.335938 28 80 28 Z M 80 28 "/>
</g>
</svg>
