<svg fill="#000000" xmlns="http://www.w3.org/2000/svg"  viewBox="0 0 50 50" width="100px" height="100px"><path d="M 25 2 C 18.272325 2 12.20948 4.9067015 8 9.5253906 L 8 5 A 2.0002 2.0002 0 0 0 5.9707031 2.9726562 A 2.0002 2.0002 0 0 0 4 5 L 4 16 L 15 16 A 2.0002 2.0002 0 1 0 15 12 L 11.144531 12 C 14.608106 8.3080175 19.524201 6 25 6 C 35.517124 6 44 14.482876 44 25 C 44 35.517124 35.517124 44 25 44 C 14.482876 44 6 35.517124 6 25 A 2.0002 2.0002 0 1 0 2 25 C 2 37.678876 12.321124 48 25 48 C 37.678876 48 48 37.678876 48 25 C 48 12.321124 37.678876 2 25 2 z M 25 18 C 21.157696 18 18 21.157696 18 25 C 18 28.842304 21.157696 32 25 32 C 28.842304 32 32 28.842304 32 25 C 32 21.157696 28.842304 18 25 18 z M 25 22 C 26.680544 22 28 23.319456 28 25 C 28 26.680544 26.680544 28 25 28 C 23.319456 28 22 26.680544 22 25 C 22 23.319456 23.319456 22 25 22 z"/></svg>