<svg fill="#000000" xmlns="http://www.w3.org/2000/svg"  viewBox="0 0 80 80" width="80px" height="80px"><path d="M 50 9 C 45.984375 9 42.429688 10.992188 40.25 14.03125 L 30 11.980469 L 9 16.179688 L 9 68.21875 L 30 64.019531 L 50 68.019531 L 71 63.820313 L 71 11.78125 L 59.75 14.03125 C 57.570313 10.992188 54.015625 9 50 9 Z M 50 11 C 55.535156 11 60 15.464844 60 21 C 60 22.21875 59.375 24.230469 58.371094 26.425781 C 57.367188 28.625 56.007813 31.03125 54.644531 33.253906 C 52.324219 37.046875 50.636719 39.328125 50 40.203125 C 49.363281 39.328125 47.675781 37.046875 45.355469 33.253906 C 43.992188 31.03125 42.632813 28.625 41.628906 26.425781 C 40.625 24.230469 40 22.21875 40 21 C 40 15.464844 44.464844 11 50 11 Z M 30 14.019531 L 39.175781 15.855469 C 38.429688 17.414063 38 19.15625 38 21 C 38 22.820313 38.75 24.949219 39.808594 27.261719 C 40.867188 29.570313 42.257813 32.035156 43.644531 34.300781 C 46.421875 38.835938 49.195313 42.59375 49.195313 42.59375 L 50 43.6875 L 50.804688 42.59375 C 50.804688 42.59375 53.578125 38.835938 56.355469 34.300781 C 57.742188 32.035156 59.132813 29.570313 60.191406 27.261719 C 61.25 24.949219 62 22.820313 62 21 C 62 19.15625 61.570313 17.414063 60.824219 15.855469 L 69 14.21875 L 69 62.179688 L 50 65.980469 L 30 61.980469 L 11 65.78125 L 11 17.820313 Z M 30 15 C 29.449219 15 29 15.449219 29 16 C 29 16.550781 29.449219 17 30 17 C 30.550781 17 31 16.550781 31 16 C 31 15.449219 30.550781 15 30 15 Z M 50 17 C 47.800781 17 46 18.800781 46 21 C 46 23.199219 47.800781 25 50 25 C 52.199219 25 54 23.199219 54 21 C 54 18.800781 52.199219 17 50 17 Z M 30 19 C 29.449219 19 29 19.449219 29 20 C 29 20.550781 29.449219 21 30 21 C 30.550781 21 31 20.550781 31 20 C 31 19.449219 30.550781 19 30 19 Z M 50 19 C 51.117188 19 52 19.882813 52 21 C 52 22.117188 51.117188 23 50 23 C 48.882813 23 48 22.117188 48 21 C 48 19.882813 48.882813 19 50 19 Z M 30 23 C 29.449219 23 29 23.449219 29 24 C 29 24.550781 29.449219 25 30 25 C 30.550781 25 31 24.550781 31 24 C 31 23.449219 30.550781 23 30 23 Z M 30 27 C 29.449219 27 29 27.449219 29 28 C 29 28.550781 29.449219 29 30 29 C 30.550781 29 31 28.550781 31 28 C 31 27.449219 30.550781 27 30 27 Z M 30 31 C 29.449219 31 29 31.449219 29 32 C 29 32.550781 29.449219 33 30 33 C 30.550781 33 31 32.550781 31 32 C 31 31.449219 30.550781 31 30 31 Z M 30 35 C 29.449219 35 29 35.449219 29 36 C 29 36.550781 29.449219 37 30 37 C 30.550781 37 31 36.550781 31 36 C 31 35.449219 30.550781 35 30 35 Z M 30 39 C 29.449219 39 29 39.449219 29 40 C 29 40.550781 29.449219 41 30 41 C 30.550781 41 31 40.550781 31 40 C 31 39.449219 30.550781 39 30 39 Z M 30 43 C 29.449219 43 29 43.449219 29 44 C 29 44.550781 29.449219 45 30 45 C 30.550781 45 31 44.550781 31 44 C 31 43.449219 30.550781 43 30 43 Z M 50 46 C 49.449219 46 49 46.449219 49 47 C 49 47.550781 49.449219 48 50 48 C 50.550781 48 51 47.550781 51 47 C 51 46.449219 50.550781 46 50 46 Z M 30 47 C 29.449219 47 29 47.449219 29 48 C 29 48.550781 29.449219 49 30 49 C 30.550781 49 31 48.550781 31 48 C 31 47.449219 30.550781 47 30 47 Z M 50 50 C 49.449219 50 49 50.449219 49 51 C 49 51.550781 49.449219 52 50 52 C 50.550781 52 51 51.550781 51 51 C 51 50.449219 50.550781 50 50 50 Z M 30 51 C 29.449219 51 29 51.449219 29 52 C 29 52.550781 29.449219 53 30 53 C 30.550781 53 31 52.550781 31 52 C 31 51.449219 30.550781 51 30 51 Z M 50 54 C 49.449219 54 49 54.449219 49 55 C 49 55.550781 49.449219 56 50 56 C 50.550781 56 51 55.550781 51 55 C 51 54.449219 50.550781 54 50 54 Z M 30 55 C 29.449219 55 29 55.449219 29 56 C 29 56.550781 29.449219 57 30 57 C 30.550781 57 31 56.550781 31 56 C 31 55.449219 30.550781 55 30 55 Z M 50 58 C 49.449219 58 49 58.449219 49 59 C 49 59.550781 49.449219 60 50 60 C 50.550781 60 51 59.550781 51 59 C 51 58.449219 50.550781 58 50 58 Z M 30 59 C 29.449219 59 29 59.449219 29 60 C 29 60.550781 29.449219 61 30 61 C 30.550781 61 31 60.550781 31 60 C 31 59.449219 30.550781 59 30 59 Z M 50 62 C 49.449219 62 49 62.449219 49 63 C 49 63.550781 49.449219 64 50 64 C 50.550781 64 51 63.550781 51 63 C 51 62.449219 50.550781 62 50 62 Z"/></svg>